<svg width="204" height="40" viewBox="0 0 204 40" fill="none" xmlns="http://www.w3.org/2000/svg">
<g id="Group 210">
<g id="Group">
<path id="Vector" d="M64.998 18.9578V25.9694H73.2591C72.3761 29.2955 69.6224 31.1627 65.5181 31.1627C60.063 31.1627 56.1681 27.006 56.1681 21.3974C56.1681 15.7888 60.063 11.6845 65.5181 11.6845C70.6625 11.6845 73.0497 15.3735 73.0497 15.3735L79.9601 8.41076C79.9601 8.41076 75.6987 2.59277 65.6751 2.59277C54.7127 2.59277 46.2981 10.955 46.2981 21.4498C46.2981 31.9445 54.4021 39.9961 65.3645 39.9961C76.3269 39.9961 83.4432 31.8398 83.4432 21.6592C83.4432 20.3609 83.2373 18.9578 83.2373 18.9578H65.005H64.998Z" fill="white"/>
<path id="Vector_2" d="M100.279 11.9464C91.7601 11.9464 85.3174 18.232 85.3174 26.1266C85.3174 34.0212 91.446 39.9963 99.9653 39.9963C108.485 39.9963 114.927 33.7106 114.927 25.816C114.927 17.9214 108.799 11.9464 100.279 11.9464ZM100.122 31.4281C96.9534 31.4281 94.6674 28.985 94.6674 25.973C94.6674 22.9611 96.9534 20.518 100.122 20.518C103.291 20.518 105.577 22.9611 105.577 25.973C105.577 28.985 103.291 31.4281 100.122 31.4281Z" fill="white"/>
<path id="Vector_3" d="M126.047 17.2967L125.579 12.4664H117.266V39.4797H126.616V28.7267C126.721 23.5823 129.111 21.5581 133.474 21.5581H135.449L135.606 11.9464C131.191 11.9464 127.865 13.8694 126.047 17.2967Z" fill="white"/>
<path id="Vector_4" d="M147.396 12.4669H137.941V39.4803H147.396V12.4669Z" fill="white"/>
<path id="Vector_5" d="M142.67 0C139.344 0 136.957 2.18131 136.957 5.19326C136.957 8.20522 139.347 10.3865 142.67 10.3865C145.993 10.3865 148.383 8.20522 148.383 5.19326C148.383 2.18131 145.993 0 142.67 0Z" fill="white"/>
<path id="Vector_6" d="M161.527 3.11719H152.073V39.4805H161.527V3.11719Z" fill="white"/>
<path id="Vector_7" d="M175.655 3.11719H166.2V39.4805H175.655V3.11719Z" fill="white"/>
<path id="Vector_8" d="M191.395 11.9464C183.864 11.9464 179.55 15.583 179.55 15.583L183.187 21.5581C183.187 21.5581 185.783 19.7397 189.42 19.7397C192.432 19.7397 194.613 21.4534 194.613 24.1547V24.7271C192.952 23.8441 190.872 23.3764 188.537 23.3764C182.147 23.3764 177.99 27.0131 177.99 31.8434C177.99 36.6737 181.836 39.9997 188.223 39.9997C191.34 39.9997 194.093 39.1168 196.016 37.4555L196.69 39.4797H203.963V24.2594C203.963 16.5707 199.081 11.9464 191.392 11.9464H191.395ZM191.085 34.283C188.851 34.283 187.343 33.037 187.343 31.4246C187.343 29.8122 188.851 28.5662 191.085 28.5662C193.319 28.5662 194.879 29.8122 194.879 31.4246C194.879 33.037 193.319 34.283 191.085 34.283Z" fill="white"/>
</g>
<g id="Group_2">
<path id="Vector_9" d="M11.0809 36.9065L5.829 22.1849C5.46525 21.1697 4.03161 20.2425 2.69545 21.0533C1.31174 21.8949 -0.70201 24.5363 0.527161 28.7136C1.95604 33.5708 6.85133 38.6872 10.0253 38.6872C10.0562 38.6872 10.0847 38.6872 10.1157 38.6872C10.9216 38.673 11.4566 37.8599 11.1594 37.1109C11.1332 37.042 11.1071 36.973 11.0809 36.9017V36.9065Z" fill="#FFD109"/>
<path id="Vector_10" d="M37.5639 19.1009C37.1264 17.8551 36.2658 16.7852 35.1412 16.091L33.6933 15.197C33.9287 14.0059 33.8051 12.753 33.3058 11.5999L29.8703 3.66849C28.905 1.44077 26.713 0 24.2831 0C21.8533 0 19.6613 1.44077 18.696 3.66849L15.7883 10.3826C15.2272 10.3968 14.6756 10.461 14.1359 10.5752C11.9272 11.0435 9.94201 12.3298 8.61774 14.2104C7.70953 15.5014 7.16746 16.9873 7.0153 18.516C6.88454 19.8308 7.03908 21.1765 7.49556 22.4532L12.5026 36.471L12.5121 36.4971C12.5335 36.5542 12.5549 36.6112 12.5763 36.6659C12.5763 36.6707 12.5787 36.6731 12.581 36.6778C12.6024 36.7277 12.6238 36.78 12.6452 36.83C12.65 36.8419 12.6571 36.8561 12.6619 36.868C12.6833 36.9132 12.7047 36.9584 12.7261 37.0035C12.7356 37.0226 12.7451 37.0416 12.757 37.063C12.776 37.101 12.7974 37.1414 12.8188 37.1795C12.8497 37.2365 12.883 37.2912 12.9163 37.3459C12.9258 37.3625 12.9377 37.3816 12.9496 37.3982C12.9781 37.4434 13.0042 37.4862 13.0352 37.529C13.0447 37.5456 13.0565 37.5599 13.0661 37.5741C13.0756 37.5884 13.0851 37.6027 13.0946 37.6169C13.1184 37.6502 13.1398 37.6811 13.1635 37.712C13.1707 37.7215 13.1778 37.7334 13.1873 37.7429C13.2515 37.8285 13.3205 37.9117 13.3894 37.9926C13.3918 37.995 13.3942 37.9997 13.3965 38.0021C13.4655 38.0829 13.5392 38.1614 13.6129 38.2351C13.62 38.2422 13.6272 38.2493 13.6319 38.2541C13.6771 38.2969 13.7199 38.3397 13.7674 38.3825C13.7769 38.392 13.7864 38.3991 13.796 38.4086C13.8435 38.4514 13.8934 38.4942 13.9434 38.537C13.9481 38.5418 13.9529 38.5465 13.96 38.5513C14.0123 38.5941 14.067 38.6369 14.1217 38.6773C14.1431 38.6916 14.1621 38.7082 14.1835 38.7225C14.2168 38.7462 14.2501 38.77 14.2833 38.7938C14.3119 38.8128 14.3404 38.8318 14.3713 38.8532C14.3951 38.8699 14.4212 38.8865 14.445 38.9008C14.4783 38.9222 14.514 38.9436 14.5496 38.965C14.5615 38.9721 14.5734 38.9792 14.5877 38.9864C14.7256 39.0672 14.8658 39.1385 15.0132 39.2051C15.0251 39.2099 15.0346 39.2146 15.0465 39.2194C15.0941 39.2408 15.1416 39.2598 15.1892 39.2812C15.1963 39.2836 15.2058 39.2883 15.2129 39.2907C15.358 39.3478 15.5078 39.4001 15.6599 39.4429C15.6813 39.45 15.7051 39.4547 15.7265 39.4619C15.7645 39.4714 15.8049 39.4833 15.843 39.4928C15.8763 39.4999 15.9096 39.5094 15.9428 39.5166C15.9738 39.5237 16.007 39.5308 16.0403 39.538C16.1069 39.5522 16.1735 39.5641 16.24 39.5736C16.2495 39.5736 16.2591 39.576 16.2686 39.5784C16.3328 39.5879 16.3969 39.595 16.4611 39.6021C16.4754 39.6021 16.492 39.6045 16.5063 39.6069C16.5705 39.614 16.6371 39.6188 16.7013 39.6212C16.7108 39.6212 16.7203 39.6212 16.7274 39.6212C16.8035 39.6259 16.882 39.6283 16.958 39.6283C17.0341 39.6283 17.1126 39.6259 17.1887 39.6212C17.2101 39.6212 17.2315 39.6188 17.2528 39.6164C17.3028 39.614 17.3503 39.6093 17.4003 39.6045C17.4359 39.6021 17.474 39.5974 17.5096 39.5926C17.5405 39.5879 17.5738 39.5855 17.6047 39.5807C17.6499 39.5736 17.6951 39.5665 17.7426 39.5594C17.7497 39.5594 17.7569 39.5594 17.7664 39.557C17.7783 39.557 17.7902 39.5522 17.8021 39.5498C17.8591 39.5403 17.9138 39.5284 17.9709 39.5166C17.9804 39.5166 17.9875 39.5118 17.997 39.5094C18.3203 39.4381 18.6294 39.3311 18.9242 39.198C18.9409 39.1908 18.9599 39.1813 18.9765 39.1742C19.017 39.1552 19.055 39.1362 19.093 39.1171C19.1192 39.1029 19.1477 39.0886 19.1739 39.0743C19.2072 39.0577 19.2404 39.0387 19.2714 39.0197C19.3023 39.0006 19.3355 38.984 19.3665 38.965C19.395 38.9483 19.4235 38.9293 19.452 38.9127C19.4877 38.8913 19.521 38.8699 19.5543 38.8461C19.5804 38.8295 19.6042 38.8128 19.6304 38.7962C19.666 38.77 19.7041 38.7462 19.7397 38.7201C19.7611 38.7034 19.7849 38.6868 19.8063 38.6725C19.8443 38.644 19.8824 38.6131 19.9204 38.5822C19.9394 38.5679 19.9585 38.5537 19.9751 38.537C20.0179 38.5014 20.0583 38.4657 20.0987 38.43C20.1106 38.4181 20.1249 38.4086 20.1368 38.3968C20.2438 38.2993 20.346 38.197 20.4435 38.0901C20.4601 38.071 20.4791 38.0496 20.4958 38.0306C20.5243 37.9973 20.5552 37.964 20.5837 37.9284C20.6051 37.9022 20.6265 37.8761 20.6479 37.8499C20.6717 37.8214 20.6931 37.7929 20.7169 37.762C20.7407 37.731 20.7621 37.7025 20.7834 37.6716C20.8025 37.6455 20.8215 37.6193 20.8405 37.5932C20.8643 37.5599 20.8857 37.5266 20.9095 37.4909C20.9261 37.4671 20.9404 37.4434 20.957 37.4172C20.9808 37.3792 21.0022 37.3435 21.026 37.3055C21.0378 37.2841 21.0521 37.2627 21.064 37.2413C21.0878 37.2009 21.1115 37.1604 21.1329 37.1177C21.1425 37.101 21.1496 37.0844 21.1591 37.0677C21.1829 37.0202 21.2066 36.9726 21.2304 36.9251C21.2304 36.9251 21.2304 36.9251 21.2304 36.9227C21.3113 36.7515 21.3826 36.5732 21.442 36.3901C21.4468 36.3759 21.4515 36.3616 21.4563 36.3473C21.4705 36.2998 21.4848 36.2546 21.4991 36.2071C21.5062 36.1833 21.5133 36.1595 21.5181 36.1357C21.53 36.0929 21.5395 36.0502 21.5514 36.005C21.5585 35.9764 21.5656 35.9479 21.5704 35.917C21.5799 35.8766 21.587 35.8362 21.5942 35.7958C21.6013 35.7625 21.6061 35.7292 21.6132 35.6959C21.6203 35.6579 21.6251 35.6198 21.6322 35.5818C21.637 35.5437 21.6417 35.5033 21.6465 35.4653C21.6512 35.432 21.656 35.3963 21.6584 35.3607C21.6631 35.3131 21.6655 35.268 21.6679 35.2204C21.6679 35.1919 21.6726 35.1657 21.6726 35.1372C21.6774 35.0611 21.6774 34.985 21.6774 34.9089V24.3076C21.6774 22.8692 22.8471 21.6971 24.2879 21.6971C25.4648 21.6971 26.1305 22.3914 26.4205 22.8027C26.7106 23.2164 27.1409 24.0746 26.7462 25.1826L23.8409 33.3208C22.9636 35.7744 24.2427 38.4752 26.6963 39.3501C27.2217 39.538 27.7567 39.6259 28.2821 39.6259C28.2821 39.6259 28.294 39.6259 28.2988 39.6259C28.4129 39.6259 28.5294 39.6212 28.6435 39.6117C30.4433 39.4714 32.079 38.3017 32.7257 36.4924L35.631 28.3565L37.5591 22.9548C38.0037 21.7114 38.0085 20.3396 37.571 19.0914L37.5639 19.1009ZM30.0106 14.7929L28.149 18.0191C27.7068 18.7847 26.8818 19.2626 25.9973 19.2626C25.1129 19.2626 24.2879 18.7871 23.8457 18.0191L21.9841 14.7929C21.5419 14.0273 21.5419 13.0739 21.9841 12.3084C22.4263 11.5428 23.2513 11.0649 24.1357 11.0649H27.8613C28.7457 11.0649 29.5707 11.5404 30.0129 12.3084C30.4552 13.0763 30.4552 14.0273 30.0129 14.7929H30.0106Z" fill="#FFD109"/>
</g>
</g>
</svg>
