<svg width="153" height="39" viewBox="0 0 153 39" fill="none" xmlns="http://www.w3.org/2000/svg">
<g id="Layer_1" clip-path="url(#clip0_1_5612)">
<g id="Group">
<path id="Vector" d="M10.8753 36.3143L5.65224 21.8288C5.29048 20.8299 3.86473 19.9176 2.53592 20.7153C1.15982 21.5434 -0.842857 24.1425 0.379554 28.2528C1.80058 33.0322 6.66894 38.0666 9.82546 38.0666C9.8562 38.0666 9.88457 38.0666 9.91531 38.0666C10.7168 38.0525 11.2488 37.2524 10.9533 36.5155C10.9273 36.4477 10.9013 36.3799 10.8753 36.3097V36.3143Z" fill="#FFD109"/>
<path id="Vector_2" d="M37.2139 18.7947C36.7788 17.5688 35.9229 16.5161 34.8045 15.833L33.3646 14.9534C33.5987 13.7814 33.4757 12.5485 32.9792 11.4139L29.5626 3.60968C28.6026 1.41767 26.4226 0 24.0062 0C21.5897 0 19.4097 1.41767 18.4498 3.60968L15.5581 10.2161C15.0001 10.2302 14.4515 10.2933 13.9148 10.4056C11.7182 10.8665 9.74394 12.1321 8.42695 13.9825C7.52374 15.2528 6.98465 16.715 6.83332 18.2192C6.70328 19.5129 6.85697 20.837 7.31094 22.0932L12.2904 35.8863L12.2999 35.912C12.3212 35.9681 12.3424 36.0243 12.3637 36.0781C12.3637 36.0828 12.3661 36.0851 12.3685 36.0898C12.3897 36.1389 12.411 36.1904 12.4323 36.2395C12.437 36.2512 12.4441 36.2653 12.4488 36.277C12.4701 36.3214 12.4914 36.3658 12.5127 36.4103C12.5221 36.429 12.5316 36.4477 12.5434 36.4688C12.5623 36.5062 12.5836 36.546 12.6049 36.5834C12.6356 36.6396 12.6687 36.6934 12.7018 36.7472C12.7113 36.7635 12.7231 36.7823 12.7349 36.7986C12.7633 36.8431 12.7893 36.8852 12.8201 36.9273C12.8295 36.9437 12.8413 36.9577 12.8508 36.9717C12.8603 36.9858 12.8697 36.9998 12.8792 37.0139C12.9028 37.0466 12.9241 37.077 12.9477 37.1074C12.9548 37.1168 12.9619 37.1285 12.9714 37.1378C13.0352 37.2221 13.1038 37.3039 13.1724 37.3835C13.1747 37.3858 13.1771 37.3905 13.1795 37.3928C13.248 37.4724 13.3213 37.5496 13.3946 37.6221C13.4017 37.6291 13.4088 37.6361 13.4135 37.6408C13.4585 37.6829 13.501 37.725 13.5483 37.7671C13.5578 37.7765 13.5672 37.7835 13.5767 37.7929C13.624 37.835 13.6736 37.8771 13.7233 37.9192C13.728 37.9239 13.7327 37.9286 13.7398 37.9332C13.7918 37.9753 13.8462 38.0175 13.9006 38.0572C13.9219 38.0713 13.9408 38.0876 13.9621 38.1017C13.9952 38.1251 14.0283 38.1485 14.0614 38.1719C14.0898 38.1906 14.1181 38.2093 14.1489 38.2303C14.1725 38.2467 14.1985 38.2631 14.2222 38.2771C14.2553 38.2982 14.2907 38.3192 14.3262 38.3403C14.338 38.3473 14.3499 38.3543 14.364 38.3613C14.5012 38.4409 14.6407 38.5111 14.7873 38.5766C14.7991 38.5812 14.8086 38.5859 14.8204 38.5906C14.8677 38.6117 14.9149 38.6304 14.9622 38.6514C14.9693 38.6538 14.9788 38.6584 14.9859 38.6608C15.1301 38.7169 15.2791 38.7684 15.4304 38.8105C15.4517 38.8175 15.4753 38.8222 15.4966 38.8292C15.5344 38.8386 15.5746 38.8503 15.6125 38.8596C15.6456 38.8667 15.6787 38.876 15.7118 38.883C15.7425 38.8901 15.7756 38.8971 15.8087 38.9041C15.8749 38.9181 15.9411 38.9298 16.0073 38.9392C16.0168 38.9392 16.0262 38.9415 16.0357 38.9439C16.0995 38.9532 16.1634 38.9602 16.2272 38.9673C16.2414 38.9673 16.2579 38.9696 16.2721 38.9719C16.336 38.9789 16.4022 38.9836 16.466 38.986C16.4755 38.986 16.4849 38.986 16.492 38.986C16.5677 38.9906 16.6457 38.993 16.7214 38.993C16.797 38.993 16.8751 38.9906 16.9507 38.986C16.972 38.986 16.9933 38.9836 17.0146 38.9813C17.0642 38.9789 17.1115 38.9743 17.1612 38.9696C17.1966 38.9673 17.2345 38.9626 17.2699 38.9579C17.3007 38.9532 17.3338 38.9509 17.3645 38.9462C17.4094 38.9392 17.4543 38.9322 17.5016 38.9251C17.5087 38.9251 17.5158 38.9251 17.5253 38.9228C17.5371 38.9228 17.5489 38.9181 17.5607 38.9158C17.6175 38.9064 17.6719 38.8947 17.7286 38.883C17.7381 38.883 17.7452 38.8784 17.7546 38.876C18.0762 38.8058 18.3836 38.7006 18.6768 38.5696C18.6933 38.5625 18.7122 38.5532 18.7288 38.5462C18.769 38.5274 18.8068 38.5087 18.8446 38.49C18.8706 38.476 18.899 38.4619 18.925 38.4479C18.9581 38.4315 18.9912 38.4128 19.022 38.3941C19.0527 38.3754 19.0858 38.359 19.1165 38.3403C19.1449 38.3239 19.1733 38.3052 19.2017 38.2888C19.2371 38.2678 19.2702 38.2467 19.3033 38.2233C19.3293 38.2069 19.353 38.1906 19.379 38.1742C19.4145 38.1485 19.4523 38.1251 19.4878 38.0993C19.509 38.083 19.5327 38.0666 19.554 38.0525C19.5918 38.0245 19.6296 37.9941 19.6675 37.9636C19.6864 37.9496 19.7053 37.9356 19.7218 37.9192C19.7644 37.8841 19.8046 37.849 19.8448 37.8139C19.8566 37.8022 19.8708 37.7929 19.8826 37.7812C19.989 37.6853 20.0907 37.5847 20.1876 37.4794C20.2042 37.4607 20.2231 37.4396 20.2396 37.4209C20.268 37.3882 20.2988 37.3554 20.3271 37.3203C20.3484 37.2946 20.3697 37.2689 20.391 37.2431C20.4146 37.215 20.4359 37.187 20.4595 37.1566C20.4832 37.1261 20.5045 37.0981 20.5257 37.0677C20.5447 37.0419 20.5636 37.0162 20.5825 36.9905C20.6061 36.9577 20.6274 36.925 20.6511 36.8899C20.6676 36.8665 20.6818 36.8431 20.6983 36.8173C20.722 36.7799 20.7433 36.7448 20.7669 36.7074C20.7787 36.6863 20.7929 36.6653 20.8047 36.6442C20.8284 36.6045 20.852 36.5647 20.8733 36.5226C20.8828 36.5062 20.8899 36.4898 20.8993 36.4735C20.923 36.4267 20.9466 36.3799 20.9703 36.3331C20.9703 36.3331 20.9703 36.3331 20.9703 36.3308C21.0507 36.1623 21.1216 35.9869 21.1807 35.8067C21.1854 35.7927 21.1902 35.7787 21.1949 35.7646C21.2091 35.7178 21.2233 35.6734 21.2374 35.6266C21.2445 35.6032 21.2516 35.5798 21.2564 35.5564C21.2682 35.5143 21.2776 35.4722 21.2895 35.4277C21.2966 35.3997 21.3036 35.3716 21.3084 35.3412C21.3178 35.3014 21.3249 35.2617 21.332 35.2219C21.3391 35.1891 21.3438 35.1564 21.3509 35.1236C21.358 35.0862 21.3628 35.0488 21.3698 35.0113C21.3746 34.9739 21.3793 34.9341 21.384 34.8967C21.3888 34.864 21.3935 34.8289 21.3959 34.7938C21.4006 34.747 21.4029 34.7025 21.4053 34.6558C21.4053 34.6277 21.41 34.6019 21.41 34.5739C21.4148 34.499 21.4148 34.4242 21.4148 34.3493V23.9179C21.4148 22.5026 22.5781 21.3493 24.0109 21.3493C25.1813 21.3493 25.8434 22.0324 26.1318 22.4371C26.4203 22.8442 26.8482 23.6887 26.4557 24.7788L23.5664 32.7866C22.6939 35.2008 23.966 37.8584 26.4061 38.7193C26.9286 38.9041 27.4606 38.9906 27.9832 38.9906C27.9832 38.9906 27.995 38.9906 27.9997 38.9906C28.1132 38.9906 28.2291 38.986 28.3426 38.9766C30.1324 38.8386 31.7592 37.6876 32.4023 35.9073L35.2916 27.9019L37.2092 22.5868C37.6513 21.3633 37.6561 20.0135 37.221 18.7853L37.2139 18.7947ZM29.7021 14.5557L27.8508 17.7303C27.411 18.4835 26.5905 18.9538 25.7109 18.9538C24.8314 18.9538 24.0109 18.4859 23.5711 17.7303L21.7198 14.5557C21.28 13.8024 21.28 12.8643 21.7198 12.111C22.1596 11.3577 22.98 10.8875 23.8596 10.8875H27.5647C28.4442 10.8875 29.2647 11.3554 29.7045 12.111C30.1443 12.8667 30.1443 13.8024 29.7045 14.5557H29.7021Z" fill="#FFD109"/>
</g>
<g id="Group_2">
<path id="Vector_3" d="M58.8542 20.3691V25.0689H64.4508C63.8526 27.2983 61.987 28.5499 59.2065 28.5499C55.5109 28.5499 52.8722 25.7637 52.8722 22.0043C52.8722 18.2449 55.5109 15.4938 59.2065 15.4938C62.6916 15.4938 64.3089 17.9665 64.3089 17.9665L68.9905 13.2994C68.9905 13.2994 66.1035 9.39966 59.3129 9.39966C51.8862 9.39966 46.1855 15.0048 46.1855 22.0394C46.1855 29.0739 51.6758 34.4709 59.1024 34.4709C66.5291 34.4709 71.3502 29.0038 71.3502 22.1798C71.3502 21.3095 71.2107 20.3691 71.2107 20.3691H58.8589H58.8542Z" fill="white"/>
<path id="Vector_4" d="M82.7567 15.6692C76.9851 15.6692 72.6204 19.8824 72.6204 25.1741C72.6204 30.4658 76.7723 34.4709 82.5439 34.4709C88.3155 34.4709 92.6802 30.2576 92.6802 24.9659C92.6802 19.6742 88.5283 15.6692 82.7567 15.6692ZM82.6503 28.7277C80.5034 28.7277 78.9547 27.0901 78.9547 25.0712C78.9547 23.0523 80.5034 21.4147 82.6503 21.4147C84.7972 21.4147 86.3459 23.0523 86.3459 25.0712C86.3459 27.0901 84.7972 28.7277 82.6503 28.7277Z" fill="white"/>
<path id="Vector_5" d="M100.213 19.2555L99.896 16.0178H94.2639V34.1246H100.598V26.917C100.669 23.4687 102.289 22.1119 105.244 22.1119H106.583L106.689 15.6692C103.698 15.6692 101.445 16.9582 100.213 19.2555Z" fill="white"/>
<path id="Vector_6" d="M114.676 16.0178H108.27V34.1247H114.676V16.0178Z" fill="white"/>
<path id="Vector_7" d="M111.474 7.6615C109.221 7.6615 107.604 9.12362 107.604 11.1425C107.604 13.1614 109.223 14.6235 111.474 14.6235C113.725 14.6235 115.345 13.1614 115.345 11.1425C115.345 9.12362 113.725 7.6615 111.474 7.6615Z" fill="white"/>
<path id="Vector_8" d="M124.251 9.75061H117.846V34.1247H124.251V9.75061Z" fill="white"/>
<path id="Vector_9" d="M133.821 9.75061H127.416V34.1247H133.821V9.75061Z" fill="white"/>
<path id="Vector_10" d="M144.484 15.6692C139.382 15.6692 136.459 18.1068 136.459 18.1068L138.923 22.1119C138.923 22.1119 140.682 20.893 143.146 20.893C145.187 20.893 146.664 22.0417 146.664 23.8524V24.236C145.539 23.6442 144.13 23.3307 142.548 23.3307C138.219 23.3307 135.403 25.7683 135.403 29.0061C135.403 32.2438 138.008 34.4732 142.335 34.4732C144.447 34.4732 146.312 33.8814 147.615 32.7678L148.071 34.1246H152.999V23.9226C152.999 18.7689 149.691 15.6692 144.482 15.6692H144.484ZM144.274 30.6413C142.761 30.6413 141.739 29.8061 141.739 28.7253C141.739 27.6445 142.761 26.8094 144.274 26.8094C145.787 26.8094 146.844 27.6445 146.844 28.7253C146.844 29.8061 145.787 30.6413 144.274 30.6413Z" fill="white"/>
</g>
</g>
<defs>
<clipPath id="clip0_1_5612">
<rect width="153" height="39" fill="white"/>
</clipPath>
</defs>
</svg>
